<?xml version="1.0" encoding="utf-8"?>
<!-- Generator: Adobe Illustrator 22.1.0, SVG Export Plug-In . SVG Version: 6.00 Build 0)  -->
<svg version="1.1" id="图层_1" xmlns="http://www.w3.org/2000/svg" xmlns:xlink="http://www.w3.org/1999/xlink" x="0px" y="0px"
	 viewBox="0 0 582 180" style="enable-background:new 0 0 582 180;" xml:space="preserve">
<style type="text/css">
	.st0{fill:#FFFFFF;}
	.st1{fill:url(#SVGID_1_);}
	.st2{fill:url(#SVGID_2_);}
	.st3{fill:url(#SVGID_3_);}
	.st4{fill:url(#SVGID_4_);}
</style>
<g>
	<polygon class="st0" points="192.1,97.6 244.1,97.6 244.1,90.8 192.1,90.8 192.1,57.8 247.1,57.8 247.1,51.1 184.4,51.1 
		184.4,140.3 249.2,140.3 249.2,133.6 192.1,133.6 	"/>
	<path class="st0" d="M321,129c-5.5,4-12,6.1-19.6,6.1c-10.8,0-19.2-3.8-25.2-11.1c-5.7-7-8.6-16.4-8.6-27.9s2.9-20.9,8.7-28.1
		c6.3-7.8,14.7-11.6,25.7-11.6c7.2,0,13.6,1.9,19,5.6c5.5,3.7,9.3,9.6,10.2,16.2h7.4c-1.1-8.7-5.1-15.8-12.1-21
		c-6.8-5.3-14.9-7.8-24.2-7.8c-13.5,0-24.1,4.6-31.7,14.1c-7,8.6-10.5,19.5-10.5,32.6c0,13.1,3.4,23.8,10.2,32.3
		c7.5,9.1,17.9,13.7,31.3,13.7c9.4,0,17.5-2.7,24.4-8c7.5-5.9,12.1-14,14-24.2h-7.4C330.7,118.1,326.8,124.5,321,129z"/>
	<polygon class="st0" points="417.4,90.8 362,90.8 362,51.1 354.4,51.1 354.4,140.3 362,140.3 362,97.6 417.4,97.6 417.4,140.3 
		425,140.3 425,51.1 417.4,51.1 	"/>
	<path class="st0" d="M513.1,62.9c-7.8-9-18.1-13.5-31.3-13.5c-13.2,0-23.8,4.5-31.5,13.5c-7.2,8.5-10.9,19.5-10.9,32.9
		s3.6,24.4,10.9,32.9c7.6,9,18.1,13.5,31.4,13.5c13.3,0,23.7-4.5,31.4-13.4c7.2-8.5,10.9-19.5,10.9-33
		C524,82.2,520.4,71.3,513.1,62.9z M507.4,124c-6.3,7.4-14.7,11.1-25.6,11.1s-19.5-3.8-25.7-11.3c-6-7.1-8.9-16.5-8.9-28.1
		c0-11.5,3-20.9,9-28.1c6.3-7.5,14.9-11.3,25.7-11.3c10.8,0,19.2,3.6,25.5,11.1c6,7,9,16.5,9,28.2S513.4,116.9,507.4,124z"/>
</g>
<g>
	<linearGradient id="SVGID_1_" gradientUnits="userSpaceOnUse" x1="82.7007" y1="139.1501" x2="82.7007" y2="43.1118">
		<stop  offset="0" style="stop-color:#00C1FD"/>
		<stop  offset="0.2109" style="stop-color:#00B1F8"/>
		<stop  offset="0.9975" style="stop-color:#017AE5"/>
	</linearGradient>
	<path class="st1" d="M142.7,33.4l-50-25c-0.6-0.3-1.3-0.3-1.8,0L22.7,42.4c-1.5,0.8-1.5,2.9,0,3.7l50.9,25.5l69.1-34.5
		C144.2,36.3,144.2,34.1,142.7,33.4z"/>
	<linearGradient id="SVGID_2_" gradientUnits="userSpaceOnUse" x1="45.3957" y1="139.1501" x2="45.3957" y2="43.1118">
		<stop  offset="0" style="stop-color:#00C1FD"/>
		<stop  offset="0.2109" style="stop-color:#00B1F8"/>
		<stop  offset="0.9975" style="stop-color:#017AE5"/>
	</linearGradient>
	<path class="st2" d="M19,53v92.6c0,0.9,0.5,1.8,1.3,2.2l47.9,24c1.6,0.8,3.5-0.4,3.5-2.2V75.5L22.5,50.9C20.9,50.1,19,51.2,19,53z"
		/>
	<linearGradient id="SVGID_3_" gradientUnits="userSpaceOnUse" x1="109.5071" y1="139.1501" x2="109.5071" y2="43.1118">
		<stop  offset="0" style="stop-color:#00C1FD"/>
		<stop  offset="0.2109" style="stop-color:#00B1F8"/>
		<stop  offset="0.9975" style="stop-color:#017AE5"/>
	</linearGradient>
	<path class="st3" d="M141.9,84.4L101,64c-0.7-0.3-1.5-0.3-2.2,0L75.7,75.5v42.4c0,1.8,1.9,3,3.6,2.2l62.7-31.3
		C143.8,87.9,143.8,85.3,141.9,84.4z"/>
	<linearGradient id="SVGID_4_" gradientUnits="userSpaceOnUse" x1="109.3098" y1="139.1501" x2="109.3098" y2="43.1118">
		<stop  offset="0" style="stop-color:#00C1FD"/>
		<stop  offset="0.2109" style="stop-color:#00B1F8"/>
		<stop  offset="0.9975" style="stop-color:#017AE5"/>
	</linearGradient>
	<path class="st4" d="M141.4,135.5l-40.1-20.1c-0.8-0.4-1.7-0.4-2.5,0l-23,11.6V169c0,2,2.1,3.3,3.9,2.4l61.8-30.8
		C143.4,139.5,143.4,136.6,141.4,135.5z"/>
</g>
</svg>
